<svg width="27" height="27" viewBox="0 0 27 27" fill="none" xmlns="http://www.w3.org/2000/svg">
<path fill-rule="evenodd" clip-rule="evenodd" d="M6.21028 7.656C7.64528 7.656 8.51728 6.699 8.51728 5.518C8.48828 4.308 7.64528 3.38 6.26728 3.38C4.88828 3.38 3.98828 4.308 3.98828 5.518C3.98828 6.699 4.86028 7.656 6.21028 7.656ZM8.37628 23.1H4.10028V9.344H8.37628V23.1Z" fill="#17181C"/>
<path d="M10.9362 13.7321C10.9362 12.0161 10.8802 10.5821 10.8242 9.34406H14.5372L14.7342 11.2571H14.8192C15.3812 10.3571 16.7592 9.03406 19.0662 9.03406C21.8792 9.03406 23.9892 10.9191 23.9892 14.9691V23.0991H19.7132V15.4761C19.7132 13.7041 19.0942 12.4951 17.5472 12.4951C16.3652 12.4951 15.6632 13.3101 15.3532 14.0981C15.2402 14.3781 15.2132 14.7731 15.2132 15.1671V23.0991H10.9352L10.9362 13.7321Z" fill="#17181C"/>
</svg>
